<svg xmlns="http://www.w3.org/2000/svg" viewBox="0 0 640 480"><defs><linearGradient id="s" x1="0" y1="0" x2="0" y2="1"><stop offset="0" stop-color="#cfe2ee"/><stop offset="1" stop-color="#eef3f6"/></linearGradient><linearGradient id="g" x1="0" y1="0" x2="0" y2="1"><stop offset="0" stop-color="#b9c7b0"/><stop offset="1" stop-color="#8fa287"/></linearGradient></defs><rect width="640" height="480" fill="url(#s)"/><ellipse cx="120" cy="250" rx="120" ry="80" fill="#7f9a78"/><ellipse cx="540" cy="240" rx="150" ry="90" fill="#86a07c"/><rect y="290" width="640" height="190" fill="url(#g)"/><rect x="0" y="330" width="640" height="150" fill="#b8aea0"/><g fill="#7a5a3c"><rect x="170" y="250" width="300" height="18" rx="4"/><rect x="170" y="276" width="300" height="18" rx="4"/><rect x="160" y="318" width="320" height="18" rx="4"/><rect x="160" y="342" width="320" height="14" rx="4"/></g><g fill="#3f4650"><rect x="186" y="262" width="12" height="130"/><rect x="442" y="262" width="12" height="130"/><rect x="176" y="380" width="32" height="8"/><rect x="432" y="380" width="32" height="8"/></g><circle cx="192" cy="330" r="7" fill="#c9cdd2" stroke="#2c3138" stroke-width="3"/><circle cx="448" cy="330" r="7" fill="#c9cdd2" stroke="#2c3138" stroke-width="3"/><circle cx="214" cy="346" r="22" fill="none" stroke="#e60012" stroke-width="4" stroke-dasharray="6 5"/></svg>
